<svg xmlns="http://www.w3.org/2000/svg" xmlns:xlink="http://www.w3.org/1999/xlink" width="1400" zoomAndPan="magnify" viewBox="0 0 1050 149.999998" height="200" preserveAspectRatio="xMidYMid meet" version="1.0"><defs><g/><clipPath id="553d532295"><path d="M 485.625 15 L 511.875 15 L 511.875 41.25 L 485.625 41.25 Z M 485.625 15 " clip-rule="nonzero"/></clipPath></defs><rect x="-105" width="1260" fill="#ffffff" y="-15" height="179.999997" fill-opacity="1"/><rect x="-105" width="1260" fill="#ffffff" y="-15" height="179.999997" fill-opacity="1"/><g clip-path="url(#553d532295)"><path fill="#122e17" d="M 498.925781 15 C 491.59375 15 485.625 20.972656 485.625 28.300781 C 485.625 35.628906 491.59375 41.601562 498.925781 41.601562 C 506.253906 41.601562 512.226562 35.628906 512.226562 28.300781 C 512.226562 20.972656 506.253906 15 498.925781 15 Z M 498.925781 17.660156 C 504.816406 17.660156 509.566406 22.410156 509.566406 28.300781 C 509.566406 34.191406 504.816406 38.941406 498.925781 38.941406 C 493.035156 38.941406 488.285156 34.191406 488.285156 28.300781 C 488.285156 22.410156 493.035156 17.660156 498.925781 17.660156 Z M 494.933594 22.980469 L 494.933594 33.621094 L 497.128906 33.621094 L 497.128906 29.722656 L 498.875 29.722656 L 500.871094 33.621094 L 503.222656 33.621094 L 503.222656 33.519531 L 500.921875 29.171875 C 501.210938 29.039062 501.476562 28.882812 501.710938 28.703125 C 501.945312 28.523438 502.144531 28.308594 502.3125 28.070312 C 502.476562 27.828125 502.601562 27.554688 502.691406 27.242188 C 502.777344 26.933594 502.824219 26.585938 502.824219 26.195312 C 502.824219 25.667969 502.734375 25.207031 502.550781 24.808594 C 502.371094 24.40625 502.113281 24.074219 501.777344 23.804688 C 501.441406 23.53125 501.03125 23.328125 500.542969 23.1875 C 500.054688 23.046875 499.503906 22.980469 498.890625 22.980469 Z M 497.128906 24.757812 L 498.890625 24.757812 C 499.480469 24.757812 499.917969 24.898438 500.203125 25.1875 C 500.488281 25.472656 500.628906 25.871094 500.628906 26.371094 C 500.628906 26.609375 500.59375 26.824219 500.519531 27.015625 C 500.449219 27.210938 500.335938 27.375 500.195312 27.511719 C 500.050781 27.652344 499.871094 27.761719 499.652344 27.835938 C 499.4375 27.910156 499.183594 27.949219 498.898438 27.949219 L 497.128906 27.949219 Z M 497.128906 24.757812 " fill-opacity="1" fill-rule="nonzero"/></g><g fill="#000000" fill-opacity="1"><g transform="translate(15.001978, 110.875421)"><g><path d="M 3.078125 -102.421875 L 55.75 -102.421875 L 55.75 -99.203125 L 40.234375 -99.203125 L 40.234375 -3.21875 L 45.5 -3.21875 C 53.789062 -3.21875 60.398438 -5.753906 65.328125 -10.828125 C 70.253906 -15.898438 75.253906 -23.703125 80.328125 -34.234375 L 83.390625 -34.234375 L 80.625 0 L 3.078125 0 L 3.078125 -3.21875 L 11.703125 -3.21875 L 11.703125 -99.203125 L 3.078125 -99.203125 Z M 3.078125 -102.421875 "/></g></g></g><g fill="#000000" fill-opacity="1"><g transform="translate(102.201901, 110.875421)"><g><path d="M 87.0625 0 L 53.703125 0 L 52.09375 -10.6875 C 50.53125 -6.78125 48.210938 -3.773438 45.140625 -1.671875 C 42.066406 0.421875 37.503906 1.46875 31.453125 1.46875 C 16.335938 1.46875 8.78125 -6.675781 8.78125 -22.96875 L 8.78125 -67.015625 L 0.578125 -67.015625 L 0.578125 -69.640625 L 36 -69.640625 L 36 -19.453125 C 36 -13.609375 36.410156 -9.757812 37.234375 -7.90625 C 38.066406 -6.050781 39.722656 -5.125 42.203125 -5.125 C 44.691406 -5.125 46.910156 -6.632812 48.859375 -9.65625 C 50.816406 -12.675781 51.796875 -16.867188 51.796875 -22.234375 L 51.796875 -67.015625 L 45.0625 -67.015625 L 45.0625 -69.640625 L 79.015625 -69.640625 L 79.015625 -2.640625 L 87.0625 -2.640625 Z M 87.0625 0 "/></g></g></g><g fill="#000000" fill-opacity="1"><g transform="translate(190.718605, 110.875421)"><g><path d="M 54.859375 -39.359375 C 54.859375 -49.398438 54.367188 -56.148438 53.390625 -59.609375 C 52.421875 -63.078125 50.519531 -64.8125 47.6875 -64.8125 C 44.863281 -64.8125 42.328125 -62.984375 40.078125 -59.328125 C 37.835938 -55.671875 36.71875 -50.769531 36.71875 -44.625 L 36.71875 -17.84375 C 36.71875 -13.65625 37.546875 -10.097656 39.203125 -7.171875 C 40.867188 -4.242188 43.3125 -2.78125 46.53125 -2.78125 C 49.75 -2.78125 51.941406 -4.925781 53.109375 -9.21875 C 54.273438 -13.507812 54.859375 -21.019531 54.859375 -31.75 Z M 36.4375 -69.640625 L 36.4375 -58.09375 C 40.238281 -66.769531 46.96875 -71.109375 56.625 -71.109375 C 65.007812 -71.109375 71.519531 -68.082031 76.15625 -62.03125 C 80.789062 -55.988281 83.109375 -46.820312 83.109375 -34.53125 C 83.109375 -22.238281 80.59375 -13.164062 75.5625 -7.3125 C 70.539062 -1.457031 63.007812 1.46875 52.96875 1.46875 C 48.28125 1.46875 44.765625 0.882812 42.421875 -0.28125 C 40.085938 -1.457031 38.1875 -3.265625 36.71875 -5.703125 L 36.71875 32.1875 L 55.59375 32.1875 L 55.59375 34.828125 L 1.46875 34.828125 L 1.46875 32.1875 L 9.515625 32.1875 L 9.515625 -67.015625 L 1.75 -67.015625 L 1.75 -69.640625 Z M 36.4375 -69.640625 "/></g></g></g><g fill="#122e17" fill-opacity="1"><g transform="translate(276.751967, 110.875421)"><g><path d="M 0.875 -109.734375 L 36.71875 -109.734375 L 36.71875 -2.640625 L 44.921875 -2.640625 L 44.921875 0 L 1.46875 0 L 1.46875 -2.640625 L 9.515625 -2.640625 L 9.515625 -107.09375 L 0.875 -107.09375 Z M 0.875 -109.734375 "/></g></g></g><g fill="#122e17" fill-opacity="1"><g transform="translate(322.985477, 110.875421)"><g><path d="M 39.9375 1.46875 C 27.351562 1.46875 17.914062 -1.773438 11.625 -8.265625 C 5.332031 -14.753906 2.1875 -23.773438 2.1875 -35.328125 C 2.1875 -46.890625 5.722656 -55.742188 12.796875 -61.890625 C 19.867188 -68.035156 28.867188 -71.109375 39.796875 -71.109375 C 61.941406 -71.109375 72.570312 -59.988281 71.6875 -37.75 L 30.4375 -37.75 L 30.4375 -32.046875 C 30.4375 -22.484375 31.65625 -15.265625 34.09375 -10.390625 C 36.53125 -5.515625 40.769531 -3.078125 46.8125 -3.078125 C 58.132812 -3.078125 65.550781 -9.125 69.0625 -21.21875 L 71.6875 -20.78125 C 69.832031 -13.75 66.488281 -8.28125 61.65625 -4.375 C 56.832031 -0.476562 49.59375 1.46875 39.9375 1.46875 Z M 30.578125 -40.671875 L 45.65625 -40.671875 L 45.65625 -47.84375 C 45.65625 -55.75 45.191406 -61.140625 44.265625 -64.015625 C 43.335938 -66.890625 41.484375 -68.328125 38.703125 -68.328125 C 35.921875 -68.328125 33.867188 -66.789062 32.546875 -63.71875 C 31.234375 -60.644531 30.578125 -55.351562 30.578125 -47.84375 Z M 30.578125 -40.671875 "/></g></g></g><g fill="#122e17" fill-opacity="1"><g transform="translate(398.480715, 110.875421)"><g><path d="M 60.140625 -77.25 L 64.234375 -79.734375 C 64.816406 -82.765625 63.644531 -84.28125 60.71875 -84.28125 C 56.519531 -84.28125 54.421875 -81.0625 54.421875 -74.625 C 54.421875 -72.082031 54.765625 -69.15625 55.453125 -65.84375 C 62.867188 -60.863281 66.578125 -54.492188 66.578125 -46.734375 C 66.578125 -38.984375 63.894531 -32.960938 58.53125 -28.671875 C 53.164062 -24.378906 45.894531 -22.234375 36.71875 -22.234375 C 32.914062 -22.234375 28.96875 -22.625 24.875 -23.40625 C 20.582031 -20.675781 18.4375 -18.628906 18.4375 -17.265625 C 18.4375 -15.898438 21.554688 -15.21875 27.796875 -15.21875 L 42.71875 -15.21875 C 64.863281 -15.21875 75.9375 -7.269531 75.9375 8.625 C 75.9375 17.21875 72.59375 24.023438 65.90625 29.046875 C 59.226562 34.066406 48.816406 36.578125 34.671875 36.578125 C 10.578125 36.578125 -1.46875 31.359375 -1.46875 20.921875 C -1.46875 15.265625 2.285156 11.363281 9.796875 9.21875 L 18.578125 13.171875 C 17.796875 15.992188 17.40625 18.675781 17.40625 21.21875 C 17.40625 29.601562 23.648438 33.796875 36.140625 33.796875 C 43.742188 33.796875 49.59375 32.378906 53.6875 29.546875 C 57.789062 26.722656 59.84375 23.210938 59.84375 19.015625 C 59.84375 14.828125 58.597656 12.023438 56.109375 10.609375 C 53.617188 9.191406 48.671875 8.484375 41.265625 8.484375 L 27.0625 8.484375 C 19.164062 8.484375 13.507812 7.164062 10.09375 4.53125 C 6.675781 1.894531 4.96875 -1.34375 4.96875 -5.1875 C 4.96875 -9.039062 6.1875 -12.257812 8.625 -14.84375 C 11.070312 -17.4375 15.414062 -20.632812 21.65625 -24.4375 C 10.34375 -27.65625 4.6875 -35.066406 4.6875 -46.671875 C 4.6875 -53.984375 7.316406 -59.882812 12.578125 -64.375 C 17.847656 -68.863281 25.75 -71.109375 36.28125 -71.109375 C 42.625 -71.109375 48.039062 -69.890625 52.53125 -67.453125 C 51.9375 -70.085938 51.640625 -72.476562 51.640625 -74.625 C 51.640625 -80.082031 53.101562 -84.03125 56.03125 -86.46875 C 58.957031 -88.90625 62.222656 -90.125 65.828125 -90.125 C 69.441406 -90.125 72.347656 -89.171875 74.546875 -87.265625 C 76.742188 -85.367188 77.84375 -82.757812 77.84375 -79.4375 C 77.84375 -76.125 76.960938 -73.660156 75.203125 -72.046875 C 73.453125 -70.441406 71.332031 -69.640625 68.84375 -69.640625 C 66.351562 -69.640625 64.300781 -70.296875 62.6875 -71.609375 C 61.082031 -72.929688 60.234375 -74.8125 60.140625 -77.25 Z M 29.109375 -49.890625 L 29.109375 -41.984375 C 29.109375 -35.453125 29.671875 -31.015625 30.796875 -28.671875 C 31.921875 -26.335938 33.628906 -25.171875 35.921875 -25.171875 C 38.210938 -25.171875 39.867188 -26.316406 40.890625 -28.609375 C 41.921875 -30.898438 42.4375 -35.601562 42.4375 -42.71875 L 42.4375 -49.890625 C 42.4375 -57.503906 41.945312 -62.503906 40.96875 -64.890625 C 39.988281 -67.273438 38.351562 -68.46875 36.0625 -68.46875 C 33.769531 -68.46875 32.035156 -67.222656 30.859375 -64.734375 C 29.691406 -62.253906 29.109375 -57.304688 29.109375 -49.890625 Z M 29.109375 -49.890625 "/></g></g></g><g fill="#ffffff" fill-opacity="1"><g transform="translate(474.85742, 110.875421)"><g/></g></g></svg>